<svg xmlns="http://www.w3.org/2000/svg"  viewBox="0 0 64 64" width="28px" height="28px"><linearGradient id="8PJtwSa3RNJ7esdmEIqTNa" x1="27" x2="27" y1="10.063" y2="54.063" gradientUnits="userSpaceOnUse" spreadMethod="reflect"><stop offset="0" stop-color="#1a6dff"/><stop offset="1" stop-color="#c822ff"/></linearGradient><path fill="url(#8PJtwSa3RNJ7esdmEIqTNa)" d="M26 11H28V20H26z"/><linearGradient id="8PJtwSa3RNJ7esdmEIqTNb" x1="47" x2="47" y1="12.375" y2="22.014" gradientUnits="userSpaceOnUse" spreadMethod="reflect"><stop offset="0" stop-color="#6dc7ff"/><stop offset="1" stop-color="#e6abff"/></linearGradient><path fill="url(#8PJtwSa3RNJ7esdmEIqTNb)" d="M47 13A4 4 0 1 0 47 21A4 4 0 1 0 47 13Z"/><linearGradient id="8PJtwSa3RNJ7esdmEIqTNc" x1="47" x2="47" y1="10.063" y2="54.063" gradientUnits="userSpaceOnUse" spreadMethod="reflect"><stop offset="0" stop-color="#1a6dff"/><stop offset="1" stop-color="#c822ff"/></linearGradient><path fill="url(#8PJtwSa3RNJ7esdmEIqTNc)" d="M48,35h-2c0-1.186-1.738-2.924-3.579-4.765C39.115,26.929,35,22.814,35,17 c0-6.617,5.383-12,12-12s12,5.383,12,12c0,5.814-4.115,9.929-7.421,13.235C49.738,32.076,48,33.814,48,35z M47,7 c-5.514,0-10,4.486-10,10c0,4.986,3.79,8.776,6.835,11.821c1.276,1.276,2.406,2.405,3.165,3.497 c0.759-1.092,1.889-2.221,3.165-3.497C53.21,25.776,57,21.986,57,17C57,11.486,52.514,7,47,7z"/><linearGradient id="8PJtwSa3RNJ7esdmEIqTNd" x1="17" x2="17" y1="10.063" y2="54.063" gradientUnits="userSpaceOnUse" spreadMethod="reflect"><stop offset="0" stop-color="#1a6dff"/><stop offset="1" stop-color="#c822ff"/></linearGradient><path fill="url(#8PJtwSa3RNJ7esdmEIqTNd)" d="M16 16H18V41H16z"/><linearGradient id="8PJtwSa3RNJ7esdmEIqTNe" x1="17" x2="17" y1="10.063" y2="54.063" gradientUnits="userSpaceOnUse" spreadMethod="reflect"><stop offset="0" stop-color="#1a6dff"/><stop offset="1" stop-color="#c822ff"/></linearGradient><path fill="url(#8PJtwSa3RNJ7esdmEIqTNe)" d="M16 45H18V53.125H16z"/><linearGradient id="8PJtwSa3RNJ7esdmEIqTNf" x1="47" x2="47" y1="10.063" y2="54.063" gradientUnits="userSpaceOnUse" spreadMethod="reflect"><stop offset="0" stop-color="#1a6dff"/><stop offset="1" stop-color="#c822ff"/></linearGradient><path fill="url(#8PJtwSa3RNJ7esdmEIqTNf)" d="M46 42H48V48H46z"/><linearGradient id="8PJtwSa3RNJ7esdmEIqTNg" x1="47" x2="47" y1="10.063" y2="54.063" gradientUnits="userSpaceOnUse" spreadMethod="reflect"><stop offset="0" stop-color="#1a6dff"/><stop offset="1" stop-color="#c822ff"/></linearGradient><path fill="url(#8PJtwSa3RNJ7esdmEIqTNg)" d="M46 34H48V37H46z"/><linearGradient id="8PJtwSa3RNJ7esdmEIqTNh" x1="27" x2="27" y1="10.063" y2="54.063" gradientUnits="userSpaceOnUse" spreadMethod="reflect"><stop offset="0" stop-color="#1a6dff"/><stop offset="1" stop-color="#c822ff"/></linearGradient><path fill="url(#8PJtwSa3RNJ7esdmEIqTNh)" d="M26 34H28V48H26z"/><linearGradient id="8PJtwSa3RNJ7esdmEIqTNi" x1="37" x2="37" y1="10.063" y2="54.063" gradientUnits="userSpaceOnUse" spreadMethod="reflect"><stop offset="0" stop-color="#1a6dff"/><stop offset="1" stop-color="#c822ff"/></linearGradient><path fill="url(#8PJtwSa3RNJ7esdmEIqTNi)" d="M36 44H38V53.125H36z"/><linearGradient id="8PJtwSa3RNJ7esdmEIqTNj" x1="32" x2="32" y1="10.063" y2="54.063" gradientUnits="userSpaceOnUse" spreadMethod="reflect"><stop offset="0" stop-color="#1a6dff"/><stop offset="1" stop-color="#c822ff"/></linearGradient><path fill="url(#8PJtwSa3RNJ7esdmEIqTNj)" d="M37.016,54c-1.005,0-2.018-0.298-2.881-0.899l-6.543-3.895 c-0.402-0.277-0.865-0.277-1.211-0.038l-6.57,3.968c-1.658,1.158-3.962,1.159-5.676-0.035l-6.776-4.09C6.501,48.415,6,47.474,6,46.5 V12c0-0.734,0.384-1.433,1.033-1.772C7.7,9.88,8.502,9.933,9.125,10.368l7.213,4.415c0.399,0.275,0.862,0.274,1.205,0.035 l6.652-3.957c1.652-1.154,3.955-1.155,5.67,0.039l6.499,3.854l-1.021,1.72l-6.56-3.893c-1.092-0.757-2.476-0.756-3.506-0.039 l-6.652,3.957c-0.968,0.675-2.347,0.675-3.375-0.039L8,12v34.5c0.016,0.327,0.181,0.649,0.447,0.834l6.775,4.09 c1.084,0.752,2.47,0.754,3.5,0.035l6.57-3.968c0.974-0.679,2.353-0.68,3.381,0.035l6.544,3.895c1.089,0.755,2.474,0.757,3.505,0.038 l6.593-3.969c0.972-0.678,2.354-0.679,3.381,0.036L56,52.124V21.626h2v30.373c0,0.735-0.403,1.402-1.053,1.741 c-0.669,0.349-1.47,0.295-2.092-0.138l-2.253-1.39l-4.994-3.009c-0.396-0.273-0.86-0.276-1.206-0.036l-6.593,3.969 C38.987,53.711,38.006,54,37.016,54z"/></svg>